<svg xmlns="http://www.w3.org/2000/svg" viewBox="0 -0.5 12 12" shape-rendering="crispEdges">
<metadata>Made with Pixels to Svg https://codepen.io/shshaw/pen/XbxvNj</metadata>
<path stroke="#000000" d="M0 0h12M0 1h1M11 1h1M0 2h1M11 2h1M0 3h1M11 3h1M0 4h1M3 4h1M5 4h1M9 4h1M11 4h1M0 5h1M11 5h1M0 6h1M11 6h1M0 7h1M11 7h1M0 8h1M11 8h1M0 9h1M11 9h1M0 10h1M11 10h1M0 11h12" />
<path stroke="#db2f1a" d="M1 1h2M5 1h3M9 1h2M4 8h1M9 8h1" />
<path stroke="#932f13" d="M3 1h1M8 1h1M3 2h1M8 2h1" />
<path stroke="#da2e19" d="M4 1h1M1 7h2M5 7h3M10 7h1" />
<path stroke="#dc301b" d="M1 2h2M5 2h3M9 2h2M4 7h1M9 7h1" />
<path stroke="#d82c17" d="M4 2h1M1 8h2M5 8h3M10 8h1" />
<path stroke="#fefefe" d="M1 3h1M3 5h1M6 5h1M8 5h1" />
<path stroke="#ffffff" d="M2 3h9M7 4h1M1 5h2M4 5h1M10 5h1" />
<path stroke="#fdfdfd" d="M1 4h1M4 4h1M10 4h1M5 5h1M7 5h1M9 5h1" />
<path stroke="#2d2c47" d="M2 4h1M6 4h1M8 4h1" />
<path stroke="#a81425" d="M1 6h2M4 6h4M9 6h2" />
<path stroke="#87280e" d="M3 6h1M8 6h1" />
<path stroke="#943014" d="M3 7h1M8 7h1" />
<path stroke="#902c10" d="M3 8h1M8 8h1" />
<path stroke="#af1325" d="M1 9h2M5 9h3M10 9h1" />
<path stroke="#8f2b0f" d="M3 9h1M8 9h1" />
<path stroke="#b21628" d="M4 9h1M9 9h1" />
<path stroke="#581909" d="M1 10h2M4 10h4M9 10h2" />
<path stroke="#43080e" d="M3 10h1M8 10h1" />
</svg>